<?xml version="1.0" standalone="no"?>
<!DOCTYPE svg PUBLIC "-//W3C//DTD SVG 20010904//EN"
 "http://www.w3.org/TR/2001/REC-SVG-20010904/DTD/svg10.dtd">
<svg version="1.0" xmlns="http://www.w3.org/2000/svg"
 width="2048.000000pt" height="2048.000000pt" viewBox="0 0 2048.000000 2048.000000"
 preserveAspectRatio="xMidYMid meet">
<metadata>
Created by potrace 1.14, written by Peter Selinger 2001-2017
</metadata>
<g transform="translate(0.000000,2048.000000) scale(0.100000,-0.100000)"
fill="#000000" stroke="none">
<path d="M15630 20466 c-94 -20 -216 -70 -287 -119 -34 -23 -593 -544 -1241
-1157 l-1178 -1115 1165 -5 1166 -5 95 -33 c134 -47 221 -101 321 -201 89 -90
138 -163 182 -271 60 -151 57 -63 57 -1894 l0 -1674 33 -11 c297 -95 925 -273
996 -282 375 -48 744 206 853 588 18 63 22 102 21 203 l0 125 -326 1360 c-179
748 -431 1803 -561 2345 -369 1548 -383 1606 -409 1670 -41 101 -88 170 -173
254 -109 110 -212 169 -370 211 -81 23 -262 28 -344 11z"/>
<path d="M12873 18013 c-38 -3 -53 -8 -53 -19 0 -7 -7 -14 -15 -14 -8 0 -15
-7 -15 -15 0 -8 -5 -15 -11 -15 -6 0 -17 -6 -25 -14 -8 -8 -14 -19 -14 -25 0
-6 -5 -11 -11 -11 -6 0 -17 -6 -25 -14 -8 -8 -14 -19 -14 -25 0 -6 -7 -11 -15
-11 -8 0 -15 -7 -15 -15 0 -8 -5 -15 -10 -15 -6 0 -37 -27 -69 -60 -32 -33
-64 -60 -70 -60 -6 0 -11 -5 -11 -10 0 -16 -63 -69 -82 -70 -10 0 -18 -5 -18
-11 0 -6 -6 -17 -14 -25 -8 -8 -19 -14 -25 -14 -6 0 -11 -7 -11 -15 0 -8 -7
-15 -15 -15 -8 0 -15 -5 -15 -11 0 -6 -6 -17 -14 -25 -8 -8 -19 -14 -25 -14
-6 0 -11 -5 -11 -11 0 -6 -6 -17 -14 -25 -8 -8 -19 -14 -25 -14 -6 0 -11 -7
-11 -15 0 -8 -7 -15 -15 -15 -8 0 -15 -5 -15 -11 0 -14 -25 -39 -39 -39 -6 0
-11 -5 -11 -11 0 -6 -6 -17 -14 -25 -8 -8 -19 -14 -25 -14 -6 0 -11 -7 -11
-15 0 -8 -5 -15 -11 -15 -6 0 -32 -22 -57 -50 -30 -32 -54 -50 -69 -50 -13 0
-23 -5 -23 -11 0 -14 -25 -39 -39 -39 -6 0 -11 -7 -11 -15 0 -8 -4 -15 -10
-15 -5 0 -10 -6 -10 -14 0 -8 -8 -17 -17 -19 -10 -3 488 -5 1107 -6 1128 -1
1244 -4 1360 -38 254 -72 461 -278 552 -548 l23 -70 2 -1040 c2 -572 5 -1050
8 -1062 3 -15 13 -23 26 -23 12 0 35 -6 52 -14 18 -8 61 -21 96 -30 36 -9 69
-20 75 -26 5 -5 24 -10 41 -10 17 0 39 -6 50 -14 11 -7 34 -16 50 -19 65 -12
110 -26 113 -36 2 -6 21 -11 43 -11 21 0 39 -4 39 -10 0 -5 15 -10 33 -10 17
0 45 -7 61 -15 15 -8 39 -15 52 -15 14 0 27 -7 30 -15 4 -10 20 -15 45 -15 21
0 39 -4 39 -10 0 -5 18 -10 39 -10 22 0 46 -7 55 -15 14 -14 16 -14 21 7 3 13
4 775 3 1693 l-3 1670 -22 78 c-75 262 -267 457 -533 539 l-75 23 -1150 1
c-632 0 -1174 -1 -1202 -3z"/>
<path d="M11750 16985 c0 -8 -4 -15 -10 -15 -5 0 -10 -7 -10 -15 0 -8 -5 -15
-11 -15 -6 0 -17 -6 -25 -14 -8 -8 -14 -19 -14 -25 0 -6 -7 -11 -15 -11 -8 0
-15 -4 -15 -10 0 -5 -7 -10 -15 -10 -8 0 -15 -7 -15 -15 0 -9 -9 -15 -25 -15
-14 0 -25 -5 -25 -11 0 -6 -6 -17 -14 -25 -8 -8 -19 -14 -25 -14 -6 0 -11 -7
-11 -15 0 -8 -5 -15 -11 -15 -6 0 -17 -6 -25 -14 -8 -8 -14 -19 -14 -25 0 -6
-5 -11 -11 -11 -6 0 -17 -6 -25 -14 -8 -8 -14 -19 -14 -25 0 -6 -7 -11 -15
-11 -8 0 -15 -5 -15 -11 0 -6 -6 -17 -14 -25 -8 -8 -19 -14 -25 -14 -6 0 -11
-7 -11 -15 0 -8 -5 -15 -11 -15 -19 0 -39 -28 -39 -54 0 -14 -5 -26 -11 -26
-14 0 -33 -20 -42 -43 -4 -10 -11 -15 -17 -12 -6 4 -10 -5 -10 -19 0 -16 -6
-26 -15 -26 -9 0 -15 -9 -15 -25 0 -14 -4 -25 -10 -25 -5 0 -10 -18 -10 -40 0
-29 -4 -40 -15 -40 -15 0 -21 -46 -16 -107 1 -13 -3 -23 -9 -23 -6 0 -10 -50
-10 -140 0 -87 4 -140 10 -140 6 0 10 -25 10 -55 0 -42 3 -55 15 -55 10 0 15
-11 15 -35 0 -19 5 -35 10 -35 6 0 10 -13 10 -30 0 -20 5 -30 15 -30 9 0 15
-9 15 -25 0 -14 5 -25 11 -25 19 0 39 -28 39 -54 0 -14 5 -26 11 -26 14 0 39
-25 39 -39 0 -6 7 -11 15 -11 8 0 15 -4 15 -10 0 -5 7 -10 15 -10 8 0 15 -5
15 -11 0 -17 27 -39 49 -39 12 0 21 -6 21 -15 0 -8 7 -15 15 -15 8 0 15 -7 15
-15 0 -9 9 -15 25 -15 14 0 25 -4 25 -10 0 -5 11 -10 25 -10 16 0 25 -6 25
-15 0 -9 9 -15 25 -15 14 0 25 -4 25 -10 0 -5 18 -10 40 -10 29 0 40 -4 40
-15 0 -9 9 -15 25 -15 16 0 25 -6 25 -15 0 -12 13 -15 55 -15 30 0 55 -4 55
-10 0 -5 23 -10 50 -10 38 0 50 -4 50 -15 0 -9 9 -15 25 -15 14 0 25 -4 25
-10 0 -5 18 -10 40 -10 29 0 40 -4 40 -15 0 -11 11 -15 40 -15 29 0 40 -4 40
-15 0 -11 12 -15 50 -15 28 0 50 -4 50 -10 0 -5 18 -10 40 -10 29 0 40 -4 40
-15 0 -11 12 -15 50 -15 28 0 50 -4 50 -10 0 -5 18 -10 40 -10 29 0 40 -4 40
-15 0 -11 11 -15 40 -15 29 0 40 -4 40 -15 0 -11 11 -15 40 -15 22 0 40 -4 40
-10 0 -5 16 -10 35 -10 24 0 35 -5 35 -15 0 -11 11 -15 40 -15 22 0 40 -4 40
-10 0 -5 23 -10 50 -10 38 0 50 -4 50 -15 0 -11 11 -15 40 -15 22 0 40 -4 40
-10 0 -5 25 -10 55 -10 42 0 55 -3 55 -15 0 -10 11 -15 35 -15 24 0 35 -5 35
-15 0 -11 11 -15 40 -15 22 0 40 -4 40 -10 0 -5 18 -10 40 -10 29 0 40 -4 40
-15 0 -11 11 -15 40 -15 22 0 40 -4 40 -10 0 -5 23 -10 50 -10 38 0 50 -4 50
-15 0 -11 11 -15 40 -15 29 0 40 -4 40 -15 0 -11 11 -15 40 -15 22 0 40 -4 40
-10 0 -5 16 -10 35 -10 24 0 35 -5 35 -15 0 -12 13 -15 55 -15 30 0 55 -4 55
-10 0 -5 16 -10 35 -10 24 0 35 -5 35 -15 0 -11 11 -15 40 -15 29 0 40 -4 40
-15 0 -12 13 -15 55 -15 30 0 55 -4 55 -10 0 -5 16 -10 35 -10 24 0 35 -5 35
-15 0 -11 11 -15 40 -15 22 0 40 -4 40 -10 0 -5 23 -10 50 -10 38 0 50 -4 50
-15 0 -11 11 -15 40 -15 22 0 40 -4 40 -10 0 -5 18 -10 40 -10 29 0 40 -4 40
-15 0 -11 11 -15 40 -15 29 0 40 -4 40 -15 0 -11 11 -15 40 -15 22 0 40 -4 40
-10 0 -5 23 -10 50 -10 38 0 50 -4 50 -15 0 -8 7 -15 15 -15 13 0 15 121 15
1028 -1 1105 -1 1112 -53 1240 -42 105 -88 173 -177 262 -92 92 -181 147 -315
192 l-70 23 -1237 3 c-1105 2 -1238 1 -1238 -13z"/>
<path d="M9067 13184 c-4 -4 -7 -1080 -7 -2392 l0 -2384 1143 5 c1266 5 1283
6 1607 69 276 53 504 163 660 317 183 181 282 425 337 831 16 123 18 226 18
1185 0 955 -2 1062 -18 1185 -52 390 -158 637 -350 816 -193 181 -461 285
-887 347 -139 20 -192 21 -1320 24 -647 2 -1179 1 -1183 -3z m2113 -878 c333
-59 503 -195 569 -456 36 -143 41 -269 41 -1046 0 -923 -6 -1004 -92 -1184
-88 -184 -242 -277 -538 -327 -75 -12 -202 -17 -592 -20 l-498 -5 0 1532 0
1532 508 -5 c420 -3 523 -7 602 -21z"/>
<path d="M6842 5653 l3 -1478 23 -70 c99 -293 334 -494 626 -534 84 -12 2240
-16 2309 -5 l37 7 0 213 c0 184 -2 214 -15 214 -12 0 -15 15 -15 75 0 43 -4
75 -10 75 -6 0 -10 28 -10 65 0 49 -4 67 -15 71 -11 5 -15 22 -15 65 0 46 -3
59 -15 59 -12 0 -15 13 -15 55 0 30 -4 55 -10 55 -5 0 -10 16 -10 35 0 24 -5
35 -15 35 -12 0 -15 13 -15 55 0 30 -4 55 -10 55 -5 0 -10 11 -10 25 0 16 -6
25 -15 25 -11 0 -15 11 -15 40 0 29 -4 40 -15 40 -10 0 -15 11 -15 35 0 19 -4
35 -10 35 -5 0 -10 14 -10 30 0 20 -5 30 -15 30 -10 0 -15 11 -15 35 0 19 -4
35 -10 35 -5 0 -10 14 -10 30 0 20 -5 30 -15 30 -9 0 -15 9 -15 25 0 14 -4 25
-10 25 -5 0 -10 11 -10 25 0 16 -6 25 -15 25 -9 0 -15 9 -15 25 0 16 -6 25
-15 25 -9 0 -15 9 -15 25 0 14 -4 25 -10 25 -5 0 -10 11 -10 25 0 16 -6 25
-15 25 -9 0 -15 10 -15 26 0 26 -20 54 -39 54 -6 0 -11 11 -11 25 0 16 -6 25
-15 25 -8 0 -15 7 -15 15 0 8 -4 15 -10 15 -5 0 -10 11 -10 25 0 16 -6 25 -15
25 -8 0 -15 7 -15 15 0 8 -4 15 -10 15 -5 0 -10 11 -10 25 0 16 -6 25 -15 25
-8 0 -15 7 -15 15 0 8 -7 15 -15 15 -9 0 -15 9 -15 21 0 22 -22 49 -39 49 -6
0 -11 7 -11 15 0 8 -4 15 -10 15 -5 0 -10 11 -10 25 0 16 -6 25 -15 25 -8 0
-15 7 -15 15 0 8 -5 15 -11 15 -17 0 -39 27 -39 49 0 12 -6 21 -15 21 -8 0
-15 7 -15 15 0 8 -4 15 -10 15 -5 0 -10 7 -10 15 0 8 -5 15 -11 15 -14 0 -39
25 -39 39 0 6 -7 11 -15 11 -8 0 -15 5 -15 10 0 6 -7 10 -15 10 -8 0 -15 7
-15 15 0 8 -4 15 -10 15 -5 0 -10 7 -10 15 0 8 -5 15 -11 15 -14 0 -39 25 -39
39 0 6 -7 11 -15 11 -8 0 -15 5 -15 10 0 6 -7 10 -15 10 -8 0 -15 7 -15 15 0
8 -4 15 -10 15 -5 0 -10 7 -10 15 0 8 -5 15 -11 15 -14 0 -39 25 -39 39 0 6
-7 11 -15 11 -8 0 -15 5 -15 10 0 6 -7 10 -15 10 -8 0 -15 5 -15 11 0 17 -27
39 -49 39 -12 0 -21 6 -21 15 0 8 -7 15 -15 15 -8 0 -15 5 -15 11 0 14 -25 39
-39 39 -6 0 -11 7 -11 15 0 9 -9 15 -25 15 -14 0 -25 5 -25 10 0 6 -7 10 -15
10 -8 0 -15 7 -15 15 0 9 -9 15 -25 15 -16 0 -25 6 -25 15 0 8 -5 15 -11 15
-14 0 -39 25 -39 39 0 6 -11 11 -25 11 -14 0 -25 5 -25 10 0 6 -7 10 -15 10
-8 0 -15 7 -15 15 0 9 -9 15 -25 15 -16 0 -25 6 -25 15 0 9 -9 15 -25 15 -14
0 -25 5 -25 10 0 6 -7 10 -15 10 -8 0 -15 7 -15 15 0 9 -9 15 -25 15 -14 0
-25 5 -25 10 0 6 -11 10 -25 10 -16 0 -25 6 -25 15 0 9 -9 15 -25 15 -14 0
-25 5 -25 10 0 6 -13 10 -30 10 -20 0 -30 5 -30 15 0 9 -9 15 -25 15 -16 0
-25 6 -25 15 0 9 -9 15 -25 15 -14 0 -25 5 -25 10 0 6 -11 10 -25 10 -16 0
-25 6 -25 15 0 11 -11 15 -40 15 -22 0 -40 5 -40 10 0 6 -11 10 -25 10 -16 0
-25 6 -25 15 0 11 -11 15 -40 15 -29 0 -40 4 -40 15 0 9 -9 15 -25 15 -14 0
-25 5 -25 10 0 6 -18 10 -40 10 -29 0 -40 4 -40 15 0 11 -11 15 -40 15 -22 0
-40 5 -40 10 0 6 -18 10 -39 10 -22 0 -46 7 -55 15 -8 8 -31 15 -50 15 -25 0
-36 4 -36 15 0 12 -14 15 -65 15 -37 0 -65 4 -65 10 0 6 -27 10 -60 10 l-60 0
2 -1477z"/>
<path d="M5832 5138 l3 -1973 27 -80 c86 -253 277 -432 545 -512 54 -16 167
-18 1593 -21 844 -2 1563 0 1598 3 l62 7 0 44 c0 24 5 44 10 44 6 0 10 28 10
65 0 51 3 65 15 65 12 0 15 14 15 65 0 37 4 65 10 65 6 0 10 33 10 80 0 64 3
80 15 80 12 0 15 19 15 115 0 96 3 115 15 115 12 0 15 18 15 105 l0 104 -1157
3 -1158 3 -80 23 c-235 66 -418 217 -520 427 -87 178 -79 29 -82 1648 -3 1261
-5 1437 -18 1437 -8 0 -15 7 -15 15 0 12 -17 15 -90 15 -73 0 -90 3 -90 15 0
13 -48 15 -375 15 l-375 0 2 -1972z"/>
<path d="M5740 7033 c-873 -121 -1643 -538 -2222 -1203 -31 -36 -100 -124
-155 -197 -377 -504 -610 -1102 -678 -1738 -17 -165 -20 -543 -4 -701 79 -806
424 -1548 989 -2128 562 -577 1264 -929 2080 -1041 160 -22 563 -31 742 -16
546 46 1063 214 1533 497 429 258 825 636 1106 1056 167 249 317 549 409 822
l38 111 -1556 5 -1557 5 -80 23 c-233 66 -419 218 -520 427 -87 180 -79 -34
-82 2140 -2 1061 -7 1932 -11 1935 -4 3 -18 4 -32 3z"/>
</g>
</svg>
